<svg width="269" height="26" viewBox="0 0 269 26" fill="none" xmlns="http://www.w3.org/2000/svg">
<g clip-path="url(#clip0)">
<path d="M144.67 0.807617H143.746V24.8815H144.67V0.807617Z" fill="white"/>
<path d="M38.8861 0.845485C39.2526 0.795338 39.6223 0.771872 39.9923 0.77528C40.3558 0.771581 40.7191 0.795051 41.079 0.845485L36.4395 9.02114C36.0802 9.07731 35.7166 9.10294 35.3528 9.09773C34.9826 9.1026 34.6125 9.07698 34.2466 9.02114L35.9254 6.07893L32.9517 0.845485C33.3182 0.795338 33.6879 0.771872 34.0579 0.77528C34.4193 0.771905 34.7804 0.795373 35.1381 0.845485L37.0121 4.31743L38.8861 0.845485Z" fill="white"/>
<path d="M49.1671 0.845521C49.8414 0.73704 50.5294 0.73704 51.2038 0.845521V9.02118C50.5299 9.13604 49.8409 9.13604 49.1671 9.02118V5.72794H45.7183V9.02118C45.0445 9.13604 44.3555 9.13604 43.6816 9.02118V0.845521C44.356 0.73704 45.0439 0.73704 45.7183 0.845521V4.03664H49.1671V0.845521Z" fill="white"/>
<path d="M61.8166 9.02118C61.1427 9.13604 60.4537 9.13604 59.7799 9.02118V4.22811L55.8756 9.02118C55.346 9.11049 54.8046 9.11049 54.2749 9.02118V0.845521C54.9493 0.73704 55.6372 0.73704 56.3116 0.845521V5.6705L60.2158 0.877433C60.7443 0.783906 61.2846 0.773135 61.8166 0.845521V9.02118Z" fill="white"/>
<path d="M68.4215 0.832789C69.1287 0.812579 69.8203 1.03869 70.3736 1.47101C70.613 1.65331 70.8059 1.88779 70.9369 2.15587C71.0679 2.42395 71.1335 2.71827 71.1284 3.01552C71.1428 3.39426 71.0423 3.76868 70.8396 4.09135C70.6369 4.41402 70.3411 4.67042 69.9897 4.82808C70.3608 4.98426 70.6838 5.23288 70.9267 5.54927C71.1596 5.89057 71.28 6.29383 71.2716 6.70446C71.2854 7.0263 71.2233 7.34693 71.0901 7.64139C70.957 7.93584 70.7563 8.19618 70.5038 8.40213C69.908 8.84889 69.1706 9.07493 68.4215 9.04036H64.8296V0.845554L68.4215 0.832789ZM66.8793 4.20262H68.1808C68.4188 4.21262 68.6517 4.13267 68.8315 3.97924C68.9153 3.89559 68.9801 3.79546 69.0216 3.68545C69.0631 3.57544 69.0804 3.45804 69.0722 3.34101C69.0722 2.77937 68.7794 2.49856 68.1742 2.49856H66.8728L66.8793 4.20262ZM66.8793 7.34906H68.3239C68.4459 7.36612 68.5702 7.3551 68.6871 7.31687C68.804 7.27864 68.9102 7.21425 68.9973 7.1288C69.0844 7.04335 69.1501 6.93919 69.1891 6.82455C69.228 6.70991 69.2393 6.58795 69.2219 6.46831C69.2219 5.90029 68.8965 5.61309 68.2458 5.61309H66.8859L66.8793 7.34906Z" fill="white"/>
<path d="M79.7371 7.34921C79.8412 7.90192 79.8412 8.46866 79.7371 9.02136H73.9263V0.845703H79.7371C79.8412 1.39841 79.8412 1.96515 79.7371 2.51785H75.9826V4.05597H79.3011C79.4053 4.60868 79.4053 5.17542 79.3011 5.72812H75.9826V7.34921H79.7371Z" fill="white"/>
<path d="M85.6975 0.845832C86.5233 0.807627 87.3329 1.07918 87.962 1.60532C88.2465 1.85348 88.472 2.15984 88.6226 2.50279C88.7733 2.84574 88.8454 3.21694 88.8339 3.5902C88.8454 3.96346 88.7733 4.33465 88.6226 4.67761C88.472 5.02056 88.2465 5.32692 87.962 5.57508C87.3291 6.09203 86.5198 6.35432 85.6975 6.30904H84.4742V9.00234C83.8004 9.11721 83.1114 9.11721 82.4375 9.00234V0.845832H85.6975ZM85.6975 4.6305C85.9658 4.64273 86.2295 4.55879 86.4393 4.39436C86.5457 4.29206 86.6282 4.1683 86.681 4.03165C86.7338 3.89501 86.7557 3.74873 86.7451 3.60296C86.7561 3.45715 86.7344 3.31075 86.6816 3.17404C86.6288 3.03732 86.5461 2.9136 86.4393 2.81156C86.2355 2.63349 85.9704 2.53771 85.6975 2.54351H84.4742V4.65603L85.6975 4.6305Z" fill="white"/>
<path d="M96.0888 7.51521C96.9541 7.47771 97.7919 7.206 98.5095 6.73019C98.5976 7.01527 98.6242 7.31522 98.5875 7.61094C98.5963 7.92825 98.5657 8.24544 98.4964 8.55551C97.5559 9.05222 96.4849 9.26057 95.4223 9.15361C94.3596 9.04665 93.3541 8.6293 92.536 7.95558C92.1151 7.56489 91.7819 7.09232 91.5578 6.56811C91.3337 6.0439 91.2236 5.47958 91.2346 4.91125C91.2236 4.34292 91.3337 3.77861 91.5578 3.25439C91.7819 2.73018 92.1151 2.25761 92.536 1.86692C92.9962 1.44759 93.5372 1.12264 94.1272 0.911116C94.7172 0.699596 95.3443 0.605771 95.9717 0.635145C96.8618 0.611386 97.7409 0.832468 98.5095 1.27337C98.5787 1.58345 98.6093 1.90063 98.6005 2.21794C98.6399 2.51994 98.6133 2.82671 98.5225 3.11784C97.8046 2.64369 96.9666 2.37415 96.1019 2.3392C95.3809 2.31804 94.6802 2.57463 94.1498 3.05402C93.8851 3.29829 93.6777 3.59599 93.5417 3.92655C93.4058 4.25712 93.3446 4.61268 93.3624 4.96869C93.3437 5.3248 93.4045 5.68062 93.5405 6.01131C93.6765 6.34201 93.8844 6.63961 94.1498 6.88336C94.6802 7.36275 95.3809 7.61934 96.1019 7.59818L96.0888 7.51521Z" fill="white"/>
<path d="M109.149 9.02118C108.475 9.13604 107.786 9.13604 107.112 9.02118V4.22811L103.208 9.02118C102.678 9.11049 102.137 9.11049 101.607 9.02118V0.845521C102.281 0.73704 102.969 0.73704 103.644 0.845521V5.6705L107.548 0.877433C108.078 0.794494 108.618 0.794494 109.149 0.877433V9.02118Z" fill="white"/>
<path d="M118.323 0.845703C118.428 1.39841 118.428 1.96515 118.323 2.51785H116.072V9.02136C115.396 9.1362 114.705 9.1362 114.029 9.02136V2.51785H111.777C111.673 1.96515 111.673 1.39841 111.777 0.845703H118.323Z" fill="white"/>
<path d="M126.809 7.34921C126.913 7.90192 126.913 8.46866 126.809 9.02136H121.03V0.845703H126.835C126.939 1.39841 126.939 1.96515 126.835 2.51785H123.08V4.05597H126.399C126.503 4.60868 126.503 5.17542 126.399 5.72812H123.08V7.34921H126.809Z" fill="white"/>
<path d="M135.652 0.845703C135.756 1.39841 135.756 1.96515 135.652 2.51785H133.394V9.02136C132.718 9.1362 132.027 9.1362 131.351 9.02136V2.51785H129.099C128.995 1.96515 128.995 1.39841 129.099 0.845703H135.652Z" fill="white"/>
<path d="M40.0638 22.4494C41.4205 22.3925 42.7351 21.9708 43.8639 21.2304C43.9965 21.6777 44.0363 22.1464 43.981 22.609C43.9943 23.104 43.9484 23.5988 43.8444 24.0833C42.6365 24.7697 41.2575 25.1123 39.8621 25.0725C38.8835 25.1185 37.9054 24.9728 36.9849 24.6441C36.0643 24.3154 35.2197 23.8101 34.5003 23.1579C33.8453 22.5442 33.3281 21.8032 32.9819 20.9823C32.6357 20.1613 32.468 19.2785 32.4896 18.3903C32.4705 17.5008 32.6412 16.6171 32.9909 15.7961C33.3405 14.975 33.8613 14.2348 34.5198 13.6228C35.2398 12.9714 36.0845 12.4667 37.0049 12.1381C37.9254 11.8094 38.9031 11.6632 39.8816 11.7081C41.2764 11.6661 42.6555 12.0065 43.8639 12.691C43.9681 13.1776 44.014 13.6746 44.0005 14.1717C44.0553 14.6343 44.0155 15.1029 43.8834 15.5502C42.7564 14.8055 41.4411 14.3813 40.0833 14.3248C38.9495 14.2931 37.8478 14.6961 37.012 15.4481C36.6053 15.8241 36.2856 16.2813 36.0745 16.7889C35.8635 17.2965 35.766 17.8426 35.7887 18.3903C35.7613 18.9433 35.8564 19.4956 36.0676 20.0091C36.2788 20.5225 36.601 20.9849 37.012 21.3645C37.8463 22.1188 38.9491 22.5221 40.0833 22.4877L40.0638 22.4494Z" fill="white"/>
<path d="M58.5242 24.8177C57.46 24.9919 56.3738 24.9919 55.3097 24.8177V17.3121L49.2451 24.8177C48.4135 24.9517 47.5651 24.9517 46.7334 24.8177V12.0085C47.7906 11.8299 48.8712 11.8299 49.9284 12.0085V19.514L56.0124 12.0085C56.8441 11.8744 57.6925 11.8744 58.5242 12.0085V24.8177Z" fill="white"/>
<path d="M69.8917 12.0085C70.9488 11.8299 72.0294 11.8299 73.0866 12.0085V24.8177C72.0288 24.9898 70.9494 24.9898 69.8917 24.8177V19.6544H64.4908V24.8177C63.4331 24.9898 62.3536 24.9898 61.2959 24.8177V12.0085C62.3531 11.8299 63.4336 11.8299 64.4908 12.0085V17.0313H69.8917V12.0085Z" fill="white"/>
<path d="M85.0141 22.1944C85.1768 23.0614 85.1768 23.9504 85.0141 24.8175H75.9043V12.0083H85.0141C85.1768 12.8754 85.1768 13.7643 85.0141 14.6314H79.1578V17.0311H84.3634C84.5261 17.8982 84.5261 18.7871 84.3634 19.6542H79.1578V22.2071L85.0141 22.1944Z" fill="white"/>
<path d="M92.3474 12.0085C93.6407 11.9516 94.9086 12.373 95.9003 13.1892C96.347 13.5783 96.7009 14.059 96.9371 14.5973C97.1732 15.1355 97.2858 15.7181 97.2667 16.3038C97.2867 16.8895 97.1745 17.4724 96.9383 18.0108C96.7021 18.5492 96.3477 19.0298 95.9003 19.4183C94.9086 20.2346 93.6407 20.6559 92.3474 20.599H90.4474V24.8177C89.3896 24.9898 88.3102 24.9898 87.2524 24.8177V12.0085H92.3474ZM92.3474 17.9376C92.7802 17.9504 93.2023 17.8048 93.5317 17.5292C93.6997 17.3687 93.8298 17.1742 93.913 16.9592C93.9962 16.7442 94.0304 16.514 94.0132 16.2846C94.0303 16.0562 93.996 15.827 93.9128 15.613C93.8296 15.3991 93.6995 15.2057 93.5317 15.0465C93.2123 14.7664 92.7952 14.6178 92.367 14.6316H90.4474V17.9823L92.3474 17.9376Z" fill="white"/>
<path d="M108.173 12.0083C108.335 12.8754 108.335 13.7643 108.173 14.6314H102.811V24.8175C101.753 24.9896 100.674 24.9896 99.6157 24.8175V12.0083H108.173Z" fill="white"/>
<path d="M122.111 24.8177C121.055 24.99 119.978 24.99 118.922 24.8177V17.3121L112.832 24.8177C112 24.9517 111.152 24.9517 110.32 24.8177V12.0085C111.377 11.8299 112.458 11.8299 113.515 12.0085V19.514L119.605 12.0085C120.435 11.8744 121.281 11.8744 122.111 12.0085V24.8177Z" fill="white"/>
<path d="M134.91 24.8177C133.852 24.9898 132.773 24.9898 131.715 24.8177V20.4777H130.466L127.596 24.8177C126.436 24.9708 125.261 24.9708 124.102 24.8177L127.277 20.0055C126.528 19.7043 125.888 19.1877 125.444 18.5236C124.999 17.8595 124.769 17.079 124.785 16.2846C124.761 15.7099 124.865 15.1371 125.09 14.6059C125.315 14.0747 125.655 13.5978 126.086 13.2084C127.069 12.3894 128.332 11.9674 129.62 12.0276H134.903L134.91 24.8177ZM129.665 14.6061C129.237 14.5923 128.82 14.7409 128.5 15.0209C128.334 15.1732 128.205 15.3599 128.122 15.5675C128.038 15.7751 128.003 15.9982 128.019 16.2208C128.004 16.4433 128.039 16.6663 128.122 16.8738C128.205 17.0813 128.335 17.2681 128.5 17.4206C128.829 17.698 129.251 17.8459 129.685 17.8355H131.695V14.6061H129.665Z" fill="white"/>
<path d="M157.288 4.62385C158.3 4.57032 159.296 4.89659 160.073 5.53651C160.403 5.81816 160.666 6.16784 160.842 6.56059C161.019 6.95334 161.105 7.37948 161.094 7.80859C161.103 8.23558 161.016 8.65923 160.839 9.04963C160.663 9.44003 160.401 9.78764 160.073 10.0679C159.292 10.7092 158.291 11.0334 157.275 10.9742H153.435V0.781738H160.118C160.216 1.23196 160.216 1.69731 160.118 2.14754H155.069V4.62385H157.288ZM157.288 9.60839C157.867 9.64549 158.439 9.46011 158.882 9.09142C159.066 8.9314 159.212 8.73473 159.312 8.51459C159.412 8.29445 159.463 8.05592 159.461 7.81497C159.468 7.56679 159.419 7.32015 159.319 7.09207C159.219 6.86399 159.07 6.65989 158.882 6.49385C158.438 6.12751 157.867 5.94246 157.288 5.97689H155.062V9.65944L157.288 9.60839Z" fill="white"/>
<path d="M168.33 0.596252C169.06 0.57236 169.787 0.697928 170.465 0.964951C171.143 1.23197 171.756 1.63459 172.267 2.14714C172.766 2.64462 173.159 3.23533 173.422 3.88431C173.684 4.53329 173.811 5.22735 173.796 5.92543C173.812 6.6236 173.685 7.31787 173.423 7.96695C173.16 8.61604 172.767 9.20667 172.267 9.70372C171.209 10.6995 169.799 11.2556 168.333 11.2556C166.867 11.2556 165.458 10.6995 164.4 9.70372C163.899 9.20419 163.505 8.61145 163.241 7.96038C162.978 7.30932 162.849 6.61308 162.864 5.91266C162.844 5.2059 162.97 4.50251 163.234 3.84456C163.498 3.1866 163.894 2.58758 164.4 2.08332C164.906 1.57385 165.514 1.17295 166.186 0.905994C166.858 0.639034 167.579 0.511829 168.304 0.53243L168.33 0.596252ZM165.616 3.07256C164.881 3.85148 164.488 4.88343 164.523 5.94458C164.488 7.00387 164.881 8.03399 165.616 8.8102C165.969 9.16747 166.391 9.45155 166.858 9.64556C167.325 9.83958 167.826 9.93956 168.333 9.93956C168.84 9.93956 169.342 9.83958 169.808 9.64556C170.275 9.45155 170.697 9.16747 171.05 8.8102C171.781 8.03151 172.171 7.00253 172.137 5.94458C172.171 4.88466 171.781 3.85358 171.05 3.07256C170.697 2.7153 170.275 2.43122 169.808 2.2372C169.342 2.04319 168.84 1.94321 168.333 1.94321C167.826 1.94321 167.325 2.04319 166.858 2.2372C166.391 2.43122 165.969 2.7153 165.616 3.07256Z" fill="white"/>
<path d="M184.571 11.0065C184.033 11.115 183.477 11.115 182.938 11.0065V2.16707H179.106L178.455 8.15362C178.425 8.99006 178.142 9.79883 177.641 10.4768C177.401 10.7384 177.104 10.9432 176.771 11.0759C176.439 11.2085 176.08 11.2655 175.722 11.2426C175.44 11.2495 175.159 11.2129 174.889 11.1341C174.798 10.6832 174.798 10.2192 174.889 9.76832C175.021 9.7998 175.156 9.81693 175.292 9.81938C175.489 9.82854 175.686 9.79496 175.868 9.72105C176.05 9.64714 176.214 9.53471 176.347 9.39177C176.647 8.9843 176.815 8.49699 176.828 7.99406L177.602 0.80127H184.552L184.571 11.0065Z" fill="white"/>
<path d="M190.948 4.39432C191.978 4.33656 192.99 4.67289 193.772 5.33251C194.11 5.63307 194.377 6.00115 194.557 6.41185C194.736 6.82256 194.824 7.26631 194.813 7.71309C194.828 8.15674 194.744 8.59817 194.568 9.00695C194.391 9.41573 194.127 9.78213 193.792 10.0809C193.009 10.7444 191.994 11.0832 190.961 11.0255H187.142V0.801116C187.678 0.692597 188.232 0.692597 188.768 0.801116V4.39432H190.948ZM190.948 9.65967C191.539 9.69382 192.12 9.49639 192.562 9.1108C192.754 8.92859 192.905 8.70888 193.004 8.4659C193.104 8.22292 193.151 7.9621 193.141 7.70033C193.162 7.4365 193.125 7.17132 193.033 6.92256C192.941 6.6738 192.796 6.4472 192.608 6.25794C192.165 5.87235 191.585 5.67492 190.994 5.70906H188.768V9.64053L190.948 9.65967Z" fill="white"/>
<path d="M208.511 0.801116C209.054 0.692633 209.614 0.692633 210.157 0.801116V11.0127H197.052V0.801116C197.589 0.692597 198.142 0.692597 198.679 0.801116V9.64053H202.791V0.801116C203.328 0.692597 203.881 0.692597 204.418 0.801116V9.64053H208.511V0.801116Z" fill="white"/>
<path d="M219.84 9.59569C219.95 10.0445 219.95 10.5127 219.84 10.9615H212.779V0.769043H219.846C219.957 1.21784 219.957 1.68605 219.846 2.13484H214.406V5.10897H219.345C219.443 5.5592 219.443 6.02455 219.345 6.47477H214.406V9.6659L219.84 9.59569Z" fill="white"/>
<path d="M231.604 0.832947C232.147 0.724463 232.707 0.724463 233.251 0.832947V11.0445C232.707 11.153 232.147 11.153 231.604 11.0445V6.41103C231.231 6.76287 230.788 7.03647 230.303 7.21519C229.732 7.45093 229.119 7.57244 228.5 7.5726C228.049 7.5998 227.596 7.53121 227.174 7.37152C226.752 7.21182 226.37 6.96477 226.054 6.64717C225.455 5.97747 225.144 5.10552 225.188 4.21554V0.8138C225.727 0.705296 226.283 0.705296 226.822 0.8138V4.00492C226.822 5.48135 227.557 6.21744 229.027 6.21318C229.56 6.22187 230.087 6.10361 230.563 5.86854C230.97 5.68365 231.339 5.42611 231.65 5.10905L231.604 0.832947Z" fill="white"/>
<path d="M242.966 9.59569C243.076 10.0445 243.076 10.5127 242.966 10.9615H235.899V0.769043H242.966C243.076 1.21784 243.076 1.68605 242.966 2.13484H237.506V5.10897H242.445C242.543 5.5592 242.543 6.02455 242.445 6.47477H237.506V9.6659L242.966 9.59569Z" fill="white"/>
<path d="M257.509 10.9934C256.987 11.102 256.449 11.102 255.927 10.9934L254.249 3.64107L251.561 10.9934C251.119 11.0829 250.663 11.0829 250.221 10.9934L247.533 3.64107L245.855 10.9934C245.333 11.102 244.795 11.102 244.273 10.9934L246.707 0.781828C247.164 0.686147 247.636 0.686147 248.093 0.781828L250.911 8.44052L253.722 0.781828C254.181 0.686005 254.655 0.686005 255.114 0.781828L257.509 10.9934Z" fill="white"/>
<path d="M158.504 14.5037C159.229 14.4831 159.95 14.6103 160.622 14.8773C161.294 15.1442 161.903 15.5451 162.409 16.0546C162.915 16.5487 163.316 17.1379 163.585 17.7871C163.854 18.4363 163.988 19.1321 163.977 19.8329C163.991 20.5314 163.863 21.2256 163.599 21.8745C163.335 22.5235 162.941 23.114 162.441 23.6112C161.383 24.607 159.974 25.163 158.508 25.163C157.041 25.163 155.632 24.607 154.574 23.6112C154.074 23.1111 153.682 22.5181 153.419 21.8671C153.157 21.2161 153.029 20.5201 153.045 19.8201C153.024 19.1138 153.149 18.4105 153.411 17.7525C153.674 17.0946 154.07 16.4953 154.574 15.9908C155.084 15.4782 155.698 15.0756 156.376 14.8086C157.054 14.5416 157.781 14.416 158.511 14.4399L158.504 14.5037ZM155.784 16.98C155.055 17.7594 154.665 18.7879 154.698 19.8456C154.663 20.9056 155.053 21.9366 155.784 22.7177C156.137 23.0749 156.559 23.359 157.026 23.553C157.492 23.747 157.994 23.847 158.501 23.847C159.008 23.847 159.51 23.747 159.976 23.553C160.443 23.359 160.865 23.0749 161.218 22.7177C161.952 21.9381 162.342 20.906 162.304 19.8456C162.341 18.7874 161.951 17.7576 161.218 16.98C160.865 16.6228 160.443 16.3387 159.976 16.1447C159.51 15.9506 159.008 15.8507 158.501 15.8507C157.994 15.8507 157.492 15.9506 157.026 16.1447C156.559 16.3387 156.137 16.6228 155.784 16.98Z" fill="white"/>
<path d="M170.054 18.5312C171.072 18.473 172.073 18.7997 172.852 19.4438C173.176 19.7293 173.434 20.0782 173.611 20.468C173.788 20.8578 173.88 21.2797 173.88 21.7063C173.88 22.133 173.788 22.5549 173.611 22.9447C173.434 23.3344 173.176 23.6834 172.852 23.9689C172.073 24.613 171.072 24.9397 170.054 24.8815H166.202V14.6699H172.885C172.983 15.1201 172.983 15.5855 172.885 16.0357H167.835V18.512L170.054 18.5312ZM170.054 23.5157C170.636 23.5498 171.208 23.3649 171.655 22.9988C171.836 22.83 171.98 22.6271 172.078 22.4022C172.176 22.1773 172.227 21.9351 172.227 21.6904C172.227 21.4457 172.176 21.2035 172.078 20.9786C171.98 20.7537 171.836 20.5507 171.655 20.382C171.208 20.0159 170.636 19.8309 170.054 19.8651H167.881V23.5412L170.054 23.5157Z" fill="white"/>
<path d="M179.841 14.7081C180.871 14.6504 181.883 14.9867 182.665 15.6463C182.991 15.9569 183.25 16.3284 183.427 16.739C183.604 17.1495 183.695 17.5907 183.695 18.0365C183.695 18.4822 183.604 18.9235 183.427 19.334C183.25 19.7446 182.991 20.1161 182.665 20.4266C181.881 21.0878 180.867 21.4262 179.834 21.3712H177.642V24.8942C177.106 25.0092 176.551 25.0092 176.015 24.8942V14.6826L179.841 14.7081ZM179.841 20.0373C180.431 20.0687 181.011 19.8716 181.455 19.4884C181.827 19.0972 182.035 18.5816 182.035 18.0461C182.035 17.5105 181.827 16.995 181.455 16.6037C181.012 16.2181 180.432 16.0207 179.841 16.0548H177.642V20.0373H179.841Z" fill="white"/>
<path d="M194.176 24.8938C193.622 25.0087 193.05 25.0087 192.497 24.8938L191.443 22.3409H186.888L185.853 24.8938C185.3 25.0087 184.728 25.0087 184.175 24.8938L188.489 14.6822C188.941 14.5864 189.409 14.5864 189.862 14.6822L194.176 24.8938ZM190.922 20.9942L189.178 16.7564L187.402 20.9879L190.922 20.9942Z" fill="white"/>
<path d="M201.301 19.6097C201.858 19.77 202.344 20.1084 202.683 20.571C203.021 21.0335 203.192 21.5937 203.168 22.1626C203.183 22.5798 203.095 22.9942 202.911 23.3708C202.728 23.7474 202.454 24.0751 202.114 24.3262C201.311 24.8906 200.336 25.1717 199.349 25.1239C198.163 25.1666 196.992 24.855 195.991 24.2304C195.925 23.985 195.899 23.7308 195.913 23.4773C195.89 23.2286 195.923 22.9778 196.011 22.7434C196.967 23.4264 198.12 23.793 199.303 23.7901C199.879 23.8109 200.445 23.6473 200.917 23.3241C201.128 23.1733 201.297 22.9739 201.411 22.7435C201.524 22.513 201.578 22.2587 201.568 22.003C201.575 21.7833 201.536 21.5646 201.453 21.3604C201.37 21.1561 201.245 20.9708 201.086 20.8159C200.891 20.6471 200.663 20.5183 200.416 20.4372C200.169 20.3561 199.908 20.3243 199.648 20.3436H197.924C197.805 19.9261 197.805 19.4847 197.924 19.0672H199.616C199.841 19.0766 200.066 19.0414 200.278 18.9635C200.489 18.8857 200.682 18.7668 200.845 18.6141C200.999 18.4614 201.119 18.2797 201.199 18.08C201.278 17.8802 201.315 17.6667 201.307 17.4525C201.315 17.2277 201.272 17.004 201.181 16.7976C201.09 16.5912 200.953 16.4073 200.78 16.259C200.379 15.9293 199.865 15.7626 199.342 15.7931C198.205 15.8093 197.1 16.1705 196.18 16.827C196.09 16.602 196.056 16.359 196.082 16.1186C196.068 15.8651 196.095 15.611 196.16 15.3655C197.128 14.7513 198.262 14.4397 199.414 14.472C200.329 14.4182 201.234 14.6926 201.958 15.2442C202.258 15.4806 202.499 15.7812 202.663 16.1231C202.826 16.4649 202.908 16.8388 202.902 17.2163C202.912 17.7261 202.766 18.2271 202.483 18.6548C202.2 19.0825 201.793 19.4173 201.314 19.6161L201.301 19.6097Z" fill="white"/>
<path d="M210.216 14.5035C210.946 14.4788 211.673 14.604 212.351 14.8711C213.029 15.1381 213.643 15.5412 214.152 16.0544C214.653 16.5511 215.048 17.1415 215.311 17.7906C215.575 18.4396 215.703 19.1341 215.688 19.8327C215.703 20.5311 215.574 21.2254 215.31 21.8743C215.047 22.5233 214.653 23.1138 214.152 23.6109C213.095 24.6067 211.685 25.1628 210.219 25.1628C208.753 25.1628 207.343 24.6067 206.285 23.6109C205.785 23.1114 205.391 22.5187 205.127 21.8676C204.863 21.2165 204.735 20.5203 204.75 19.8199C204.73 19.1131 204.856 18.4097 205.12 17.7518C205.384 17.0938 205.78 16.4948 206.285 15.9905C206.791 15.4811 207.4 15.0802 208.072 14.8132C208.744 14.5463 209.465 14.4191 210.19 14.4397L210.216 14.5035ZM207.502 16.9798C206.769 17.7574 206.379 18.7871 206.416 19.8454C206.378 20.9058 206.768 21.9379 207.502 22.7174C207.855 23.0747 208.277 23.3588 208.744 23.5528C209.21 23.7468 209.712 23.8468 210.219 23.8468C210.726 23.8468 211.228 23.7468 211.694 23.5528C212.161 23.3588 212.583 23.0747 212.936 22.7174C213.669 21.9379 214.06 20.9058 214.022 19.8454C214.059 18.7871 213.668 17.7574 212.936 16.9798C212.583 16.6225 212.161 16.3384 211.694 16.1444C211.228 15.9504 210.726 15.8504 210.219 15.8504C209.712 15.8504 209.21 15.9504 208.744 16.1444C208.277 16.3384 207.855 16.6225 207.502 16.9798Z" fill="white"/>
<path d="M222.143 14.7207C222.988 14.6839 223.819 14.9392 224.492 15.4419C224.788 15.6674 225.025 15.9586 225.183 16.2915C225.341 16.6244 225.417 16.9895 225.403 17.3566C225.419 17.8446 225.281 18.3256 225.009 18.7343C224.736 19.1431 224.342 19.4597 223.88 19.6414C224.42 19.8157 224.894 20.1447 225.24 20.586C225.565 21.0227 225.734 21.5519 225.722 22.0922C225.736 22.4859 225.657 22.8775 225.491 23.2362C225.325 23.5949 225.077 23.9112 224.765 24.1601C224.016 24.7073 223.095 24.9784 222.163 24.9259H217.92V14.7144L222.143 14.7207ZM219.54 23.5921H222.052C222.582 23.6223 223.105 23.4611 223.523 23.1389C223.687 22.9843 223.818 22.7992 223.909 22.5943C223.999 22.3895 224.048 22.169 224.051 21.9457C224.054 21.7224 224.011 21.5008 223.926 21.2937C223.841 21.0865 223.715 20.8981 223.555 20.7392C223.141 20.4225 222.621 20.2679 222.097 20.3052H219.56L219.54 23.5921ZM219.54 19.1564H222.045C222.502 19.1808 222.95 19.0297 223.295 18.7352C223.449 18.59 223.571 18.4141 223.65 18.2193C223.73 18.0245 223.766 17.8152 223.757 17.6055C223.771 17.3924 223.733 17.179 223.647 16.9827C223.561 16.7865 223.429 16.6128 223.262 16.4759C222.891 16.1944 222.43 16.0498 221.961 16.0674H219.547L219.54 19.1564Z" fill="white"/>
<path d="M236.894 24.8938C236.341 25.0087 235.769 25.0087 235.216 24.8938L234.161 22.3409H229.607L228.572 24.8938C228.018 25.0087 227.447 25.0087 226.893 24.8938L231.207 14.6822C231.66 14.5864 232.128 14.5864 232.58 14.6822L236.894 24.8938ZM233.641 20.9942L231.897 16.7564L230.147 20.9879L233.641 20.9942Z" fill="white"/>
<path d="M246.128 14.7079C246.666 14.593 247.223 14.593 247.761 14.7079V24.9195C247.223 25.0344 246.666 25.0344 246.128 24.9195V20.3818H240.421V24.894C239.885 25.009 239.33 25.009 238.794 24.894V14.6824C239.33 14.5674 239.885 14.5674 240.421 14.6824V19.0096H246.128V14.7079Z" fill="white"/>
<path d="M259.285 24.894C258.747 25.0089 258.19 25.0089 257.652 24.894V17.3884L251.639 24.894C251.21 24.9777 250.767 24.9777 250.338 24.894V14.6824C250.876 14.5675 251.433 14.5675 251.971 14.6824V22.2134L257.997 14.7079C258.425 14.6113 258.87 14.6113 259.298 14.7079L259.285 24.894Z" fill="white"/>
<path d="M268.922 23.5025C269.033 23.9513 269.033 24.4195 268.922 24.8683H261.855V14.6567H268.922C269.033 15.1034 269.033 15.5695 268.922 16.0162H263.482V18.9967H268.421C268.519 19.4469 268.519 19.9122 268.421 20.3625H263.482V23.5536L268.922 23.5025Z" fill="white"/>
<path d="M0 0.794922V24.9007H24.577V0.794922H0ZM21.5057 21.8882H3.07131V3.80734H21.5057V21.8882ZM15.2655 20.8543L7.10566 12.8446L15.2655 4.84127V9.09823L11.4458 12.8446L15.2655 16.591V20.8543Z" fill="white"/>
</g>
<defs>
<clipPath id="clip0">
<rect width="269" height="26" fill="white"/>
</clipPath>
</defs>
</svg>
