<svg width="40" height="40" viewBox="0 0 40 40" fill="none" xmlns="http://www.w3.org/2000/svg">
<path d="M20.0001 0C8.95513 0 0 8.9551 0 20C0 31.0447 8.95513 40 20.0001 40C31.045 40 40 31.0447 40 20C40.0001 8.9551 31.045 0 20.0001 0ZM30.5614 29.1822L28.9601 30.7839C28.6742 31.0694 27.837 31.2475 27.8101 31.2475C22.7441 31.2917 17.8663 29.3018 14.2824 25.7176C10.6887 22.1218 8.69644 17.2266 8.74994 12.1436C8.74994 12.1412 8.93329 11.3281 9.21894 11.0452L10.8202 9.44362C11.4062 8.85493 12.5318 8.58891 13.3203 8.85271L13.6572 8.96507C14.4434 9.22863 15.2689 10.0979 15.4861 10.8988L16.2916 13.8552C16.5088 14.6584 16.2158 15.8011 15.63 16.3871L14.5608 17.4565C15.6106 21.3428 18.6599 24.3926 22.5469 25.445L23.6157 24.3753C24.2044 23.7866 25.3466 23.4939 26.1481 23.7108L29.1041 24.5192C29.9052 24.7393 30.7743 25.5596 31.0378 26.3455L31.1501 26.6872C31.4113 27.4735 31.1473 28.5989 30.5614 29.1822Z" fill="white"/>
</svg>
