<svg width="343" height="31" viewBox="0 0 343 31" fill="none" xmlns="http://www.w3.org/2000/svg">
<path d="M184.464 0.339844H183.286V29.8542H184.464V0.339844Z" fill="#2733E9"/>
<path d="M49.5824 0.386339C50.0497 0.324859 50.5211 0.29609 50.9929 0.300268C51.4563 0.295733 51.9196 0.324507 52.3785 0.386339L46.4628 10.4096C46.0047 10.4785 45.5411 10.5099 45.0772 10.5035C44.6052 10.5095 44.1333 10.4781 43.6667 10.4096L45.8073 6.8025L42.0156 0.386339C42.4829 0.324859 42.9543 0.29609 43.4261 0.300268C43.8869 0.29613 44.3473 0.324902 44.8034 0.386339L47.1929 4.64292L49.5824 0.386339Z" fill="#2733E9"/>
<path d="M62.6916 0.386369C63.5514 0.253372 64.4287 0.253372 65.2886 0.386369V10.4097C64.4293 10.5505 63.5508 10.5505 62.6916 10.4097V6.37218H58.2942V10.4097C57.4351 10.5505 56.5565 10.5505 55.6973 10.4097V0.386369C56.5572 0.253372 57.4343 0.253372 58.2942 0.386369V4.29866H62.6916V0.386369Z" fill="#2733E9"/>
<path d="M78.8203 10.4097C77.961 10.5505 77.0825 10.5505 76.2234 10.4097V4.5334L71.2451 10.4097C70.5698 10.5192 69.8795 10.5192 69.2041 10.4097V0.386369C70.064 0.253372 70.9411 0.253372 71.801 0.386369V6.30176L76.7792 0.425493C77.453 0.310829 78.142 0.297624 78.8203 0.386369V10.4097Z" fill="#2733E9"/>
<path d="M87.242 0.370669C88.1438 0.345891 89.0256 0.623102 89.7311 1.15312C90.0363 1.37662 90.2823 1.66409 90.4493 1.99276C90.6164 2.32142 90.7 2.68226 90.6935 3.04668C90.7119 3.51101 90.5837 3.97005 90.3253 4.36564C90.0668 4.76123 89.6896 5.07558 89.2416 5.26887C89.7148 5.46034 90.1266 5.76515 90.4363 6.15304C90.7333 6.57147 90.8868 7.06587 90.8761 7.5693C90.8937 7.96387 90.8145 8.35696 90.6447 8.71797C90.4749 9.07896 90.219 9.39814 89.8971 9.65063C89.1374 10.1984 88.1972 10.4755 87.242 10.4331H82.6621V0.386319L87.242 0.370669ZM85.2756 4.50206H86.9351C87.2386 4.51432 87.5355 4.4163 87.7648 4.2282C87.8716 4.12564 87.9543 4.00288 88.0072 3.86801C88.0601 3.73314 88.0822 3.58921 88.0717 3.44573C88.0717 2.75716 87.6984 2.41289 86.9267 2.41289H85.2673L85.2756 4.50206ZM85.2756 8.35957H87.1176C87.2731 8.38049 87.4316 8.36698 87.5807 8.32011C87.7297 8.27324 87.8651 8.1943 87.9762 8.08953C88.0873 7.98477 88.171 7.85707 88.2208 7.71653C88.2704 7.57598 88.2848 7.42646 88.2626 7.27978C88.2626 6.58339 87.8477 6.23128 87.018 6.23128H85.284L85.2756 8.35957Z" fill="#2733E9"/>
<path d="M101.67 8.35997C101.803 9.03758 101.803 9.7324 101.67 10.41H94.2612V0.386719H101.67C101.803 1.06433 101.803 1.75915 101.67 2.43676H96.8832V4.32248H101.114C101.247 5.0001 101.247 5.69492 101.114 6.37252H96.8832V8.35997H101.67Z" fill="#2733E9"/>
<path d="M109.27 0.386917C110.323 0.340078 111.355 0.673 112.157 1.31804C112.52 1.62229 112.808 1.99788 113 2.41833C113.192 2.83879 113.284 3.29388 113.269 3.75149C113.284 4.2091 113.192 4.66418 113 5.08465C112.808 5.5051 112.52 5.8807 112.157 6.18494C111.35 6.81872 110.318 7.14028 109.27 7.08477H107.71V10.3867C106.851 10.5276 105.973 10.5276 105.113 10.3867V0.386917H109.27ZM109.27 5.02689C109.612 5.04188 109.948 4.93897 110.216 4.73738C110.352 4.61197 110.457 4.46024 110.524 4.29271C110.591 4.12519 110.619 3.94585 110.606 3.76713C110.62 3.58837 110.592 3.40889 110.525 3.24128C110.457 3.07366 110.352 2.92198 110.216 2.79688C109.956 2.57857 109.618 2.46115 109.27 2.46826H107.71V5.05819L109.27 5.02689Z" fill="#2733E9"/>
<path d="M122.52 8.56343C123.623 8.51746 124.692 8.18434 125.606 7.601C125.719 7.95051 125.753 8.31824 125.706 8.68079C125.717 9.06981 125.678 9.45869 125.59 9.83883C124.391 10.4478 123.025 10.7032 121.67 10.5721C120.315 10.441 119.033 9.9293 117.99 9.10332C117.453 8.62434 117.028 8.04497 116.743 7.40229C116.457 6.75961 116.317 6.06776 116.331 5.37099C116.317 4.67423 116.457 3.98239 116.743 3.3397C117.028 2.69702 117.453 2.11765 117.99 1.63867C118.577 1.12457 119.267 0.726187 120.019 0.46686C120.771 0.207538 121.571 0.0925092 122.371 0.128522C123.506 0.0993932 124.626 0.370438 125.606 0.910981C125.695 1.29114 125.734 1.68 125.723 2.06902C125.773 2.43927 125.739 2.81536 125.623 3.17229C124.708 2.59098 123.639 2.26053 122.537 2.21768C121.617 2.19174 120.724 2.50632 120.048 3.09404C119.71 3.39352 119.446 3.7585 119.272 4.16376C119.099 4.56904 119.021 5.00495 119.044 5.44142C119.02 5.878 119.097 6.31424 119.271 6.71966C119.444 7.1251 119.709 7.48995 120.048 7.78879C120.724 8.37652 121.617 8.69109 122.537 8.66515L122.52 8.56343Z" fill="#2733E9"/>
<path d="M139.172 10.4097C138.313 10.5505 137.434 10.5505 136.575 10.4097V4.5334L131.597 10.4097C130.921 10.5192 130.231 10.5192 129.556 10.4097V0.386369C130.415 0.253372 131.292 0.253372 132.153 0.386369V6.30176L137.131 0.425493C137.807 0.32381 138.495 0.32381 139.172 0.425493V10.4097Z" fill="#2733E9"/>
<path d="M150.87 0.386719C151.004 1.06433 151.004 1.75915 150.87 2.43676H148V10.41C147.138 10.5508 146.257 10.5508 145.395 10.41V2.43676H142.524C142.391 1.75915 142.391 1.06433 142.524 0.386719H150.87Z" fill="#2733E9"/>
<path d="M161.69 8.35997C161.823 9.03758 161.823 9.7324 161.69 10.41H154.321V0.386719H161.723C161.856 1.06433 161.856 1.75915 161.723 2.43676H156.935V4.32248H161.167C161.3 5.0001 161.3 5.69492 161.167 6.37252H156.935V8.35997H161.69Z" fill="#2733E9"/>
<path d="M172.966 0.386719C173.098 1.06433 173.098 1.75915 172.966 2.43676H170.087V10.41C169.225 10.5508 168.344 10.5508 167.482 10.41V2.43676H164.61C164.478 1.75915 164.478 1.06433 164.61 0.386719H172.966Z" fill="#2733E9"/>
<path d="M51.0843 26.8728C52.8142 26.8031 54.4904 26.2861 55.9297 25.3783C56.0988 25.9267 56.1495 26.5013 56.079 27.0685C56.096 27.6753 56.0374 28.282 55.9048 28.876C54.3647 29.7175 52.6064 30.1375 50.8271 30.0887C49.5793 30.1451 48.3322 29.9665 47.1585 29.5635C45.9847 29.1605 44.9077 28.541 43.9905 27.7414C43.1553 26.989 42.4958 26.0806 42.0544 25.0742C41.613 24.0676 41.3991 22.9853 41.4267 21.8964C41.4023 20.8059 41.62 19.7225 42.0659 18.7159C42.5116 17.7092 43.1757 16.8018 44.0153 16.0515C44.9334 15.2528 46.0104 14.6341 47.184 14.2312C48.3577 13.8282 49.6043 13.649 50.852 13.7041C52.6305 13.6526 54.3889 14.0699 55.9297 14.9091C56.0626 15.5056 56.1211 16.115 56.1039 16.7244C56.1737 17.2916 56.123 17.8661 55.9546 18.4144C54.5176 17.5014 52.8405 16.9814 51.1092 16.9121C49.6635 16.8732 48.2588 17.3673 47.1931 18.2893C46.6745 18.7502 46.2668 19.3108 45.9977 19.9331C45.7286 20.5554 45.6043 21.2249 45.6333 21.8964C45.5983 22.5744 45.7196 23.2515 45.9889 23.881C46.2582 24.5104 46.669 25.0773 47.1931 25.5427C48.2568 26.4675 49.663 26.9619 51.1092 26.9198L51.0843 26.8728Z" fill="#2733E9"/>
<path d="M74.6225 29.7762C73.2655 29.9897 71.8805 29.9897 70.5237 29.7762V20.5744L62.791 29.7762C61.7306 29.9405 60.6489 29.9405 59.5884 29.7762V14.0722C60.9364 13.8532 62.3142 13.8532 63.6622 14.0722V23.2739L71.4197 14.0722C72.4802 13.9078 73.562 13.9078 74.6225 14.0722V29.7762Z" fill="#2733E9"/>
<path d="M89.1165 14.0722C90.4643 13.8532 91.8422 13.8532 93.1902 14.0722V29.7762C91.8414 29.9872 90.4651 29.9872 89.1165 29.7762V23.446H82.23V29.7762C80.8813 29.9872 79.5049 29.9872 78.1562 29.7762V14.0722C79.5042 13.8532 80.882 13.8532 82.23 14.0722V20.2301H89.1165V14.0722Z" fill="#2733E9"/>
<path d="M108.399 26.5599C108.606 27.6228 108.606 28.7127 108.399 29.7758H96.7832V14.0718H108.399C108.606 15.1348 108.606 16.2246 108.399 17.2877H100.932V20.2297H107.569C107.777 21.2928 107.777 22.3825 107.569 23.4456H100.932V26.5754L108.399 26.5599Z" fill="#2733E9"/>
<path d="M117.749 14.0722C119.398 14.0024 121.015 14.519 122.28 15.5197C122.849 15.9967 123.3 16.5861 123.602 17.246C123.903 17.9058 124.046 18.6201 124.022 19.3382C124.047 20.0562 123.904 20.7709 123.603 21.4309C123.302 22.091 122.85 22.6802 122.28 23.1565C121.015 24.1573 119.398 24.6738 117.749 24.6041H115.327V29.7762C113.978 29.9871 112.602 29.9871 111.253 29.7762V14.0722H117.749ZM117.749 21.3412C118.301 21.3569 118.839 21.1784 119.259 20.8405C119.474 20.6437 119.64 20.4053 119.746 20.1417C119.852 19.8781 119.895 19.5959 119.873 19.3146C119.895 19.0346 119.851 18.7536 119.745 18.4913C119.639 18.229 119.473 17.9919 119.259 17.7967C118.852 17.4533 118.32 17.2711 117.774 17.2881H115.327V21.396L117.749 21.3412Z" fill="#2733E9"/>
<path d="M137.927 14.0718C138.134 15.1348 138.134 16.2246 137.927 17.2877H131.091V29.7758C129.742 29.9868 128.366 29.9868 127.017 29.7758V14.0718H137.927Z" fill="#2733E9"/>
<path d="M155.699 29.7762C154.353 29.9874 152.98 29.9874 151.633 29.7762V20.5744L143.868 29.7762C142.807 29.9405 141.726 29.9405 140.665 29.7762V14.0722C142.013 13.8532 143.391 13.8532 144.739 14.0722V23.2739L152.504 14.0722C153.562 13.9078 154.641 13.9078 155.699 14.0722V29.7762Z" fill="#2733E9"/>
<path d="M172.02 29.7761C170.671 29.9871 169.295 29.9871 167.946 29.7761V24.4553H166.353L162.694 29.7761C161.215 29.9638 159.717 29.9638 158.239 29.7761L162.287 23.8764C161.332 23.5071 160.516 22.8738 159.95 22.0596C159.383 21.2454 159.089 20.2885 159.11 19.3146C159.079 18.61 159.212 17.9078 159.499 17.2565C159.785 16.6053 160.219 16.0206 160.769 15.5432C162.022 14.5391 163.632 14.0218 165.275 14.0956H172.011L172.02 29.7761ZM165.332 17.2568C164.786 17.2399 164.255 17.422 163.847 17.7653C163.635 17.952 163.47 18.1809 163.365 18.4355C163.257 18.69 163.213 18.9635 163.233 19.2364C163.214 19.5092 163.259 19.7826 163.365 20.037C163.47 20.2914 163.636 20.5204 163.847 20.7073C164.266 21.0474 164.804 21.2288 165.357 21.216H167.92V17.2568H165.332Z" fill="#2733E9"/>
<path d="M200.553 5.01851C201.843 4.95288 203.113 5.35289 204.104 6.13742C204.525 6.48273 204.86 6.91143 205.085 7.39294C205.31 7.87445 205.42 8.39689 205.406 8.92298C205.417 9.44647 205.306 9.96586 205.081 10.4445C204.856 10.9231 204.522 11.3493 204.104 11.6929C203.108 12.4791 201.832 12.8766 200.536 12.804H195.64V0.308105H204.161C204.286 0.860075 204.286 1.43059 204.161 1.98257H197.724V5.01851H200.553ZM200.553 11.1295C201.291 11.175 202.021 10.9477 202.585 10.4957C202.82 10.2995 203.006 10.0584 203.134 9.78853C203.261 9.51864 203.326 9.2262 203.324 8.9308C203.333 8.62653 203.27 8.32416 203.143 8.04453C203.015 7.76491 202.825 7.51468 202.585 7.31112C202.019 6.86199 201.291 6.63512 200.553 6.67733H197.715V11.1921L200.553 11.1295Z" fill="#2733E9"/>
<path d="M214.632 0.0808889C215.563 0.0515975 216.49 0.205543 217.354 0.532911C218.219 0.860274 219 1.35388 219.652 1.98227C220.288 2.59217 220.789 3.31638 221.124 4.11202C221.459 4.90767 221.62 5.75858 221.601 6.61442C221.622 7.47037 221.46 8.32154 221.126 9.11731C220.79 9.91309 220.289 10.6372 219.652 11.2466C218.303 12.4674 216.505 13.1492 214.636 13.1492C212.766 13.1492 210.97 12.4674 209.621 11.2466C208.982 10.6342 208.48 9.90746 208.143 9.10926C207.808 8.31106 207.643 7.45748 207.662 6.59877C207.637 5.73228 207.797 4.86993 208.134 4.06329C208.471 3.25664 208.976 2.52224 209.621 1.90402C210.266 1.27942 211.041 0.787916 211.898 0.46063C212.755 0.133339 213.674 -0.0226131 214.599 0.00264353L214.632 0.0808889ZM211.171 3.11682C210.234 4.07177 209.733 5.33694 209.778 6.6379C209.733 7.93658 210.234 9.1995 211.171 10.1511C211.621 10.5891 212.159 10.9374 212.755 11.1753C213.35 11.4131 213.989 11.5357 214.636 11.5357C215.282 11.5357 215.922 11.4131 216.516 11.1753C217.112 10.9374 217.65 10.5891 218.1 10.1511C219.032 9.19646 219.529 7.93494 219.486 6.6379C219.529 5.33845 219.032 4.07435 218.1 3.11682C217.65 2.67883 217.112 2.33055 216.516 2.09268C215.922 1.85482 215.282 1.73225 214.636 1.73225C213.989 1.73225 213.35 1.85482 212.755 2.09268C212.159 2.33055 211.621 2.67883 211.171 3.11682Z" fill="#2733E9"/>
<path d="M235.34 12.8436C234.654 12.9766 233.946 12.9766 233.258 12.8436V2.00649H228.372L227.542 9.34596C227.504 10.3714 227.143 11.363 226.504 12.1942C226.198 12.5149 225.819 12.766 225.395 12.9287C224.972 13.0912 224.514 13.1611 224.057 13.133C223.698 13.1415 223.339 13.0966 222.995 13C222.879 12.4472 222.879 11.8783 222.995 11.3256C223.164 11.3642 223.336 11.3852 223.509 11.3882C223.76 11.3994 224.011 11.3582 224.244 11.2676C224.476 11.177 224.685 11.0392 224.854 10.8639C225.237 10.3644 225.451 9.76693 225.468 9.15034L226.454 0.332031H235.316L235.34 12.8436Z" fill="#2733E9"/>
<path d="M243.472 4.7372C244.785 4.66639 246.076 5.07873 247.073 5.88742C247.504 6.2559 247.844 6.70716 248.074 7.21068C248.302 7.71421 248.414 8.25824 248.4 8.80599C248.419 9.3499 248.312 9.89109 248.088 10.3923C247.862 10.8934 247.526 11.3426 247.098 11.7089C246.1 12.5224 244.806 12.9377 243.489 12.867H238.619V0.33196C239.303 0.198917 240.009 0.198917 240.692 0.33196V4.7372H243.472ZM243.472 11.1925C244.226 11.2344 244.966 10.9923 245.53 10.5196C245.775 10.2962 245.967 10.0268 246.094 9.72893C246.221 9.43104 246.281 9.11127 246.268 8.79035C246.295 8.46689 246.248 8.14178 246.131 7.83681C246.013 7.53183 245.828 7.25402 245.589 7.02199C245.024 6.54926 244.284 6.30721 243.531 6.34906H240.692V11.169L243.472 11.1925Z" fill="#2733E9"/>
<path d="M265.865 0.33196C266.558 0.198961 267.272 0.198961 267.964 0.33196V12.8513H251.254V0.33196C251.939 0.198917 252.644 0.198917 253.329 0.33196V11.169H258.572V0.33196C259.257 0.198917 259.962 0.198917 260.647 0.33196V11.169H265.865V0.33196Z" fill="#2733E9"/>
<path d="M280.311 11.1141C280.451 11.6644 280.451 12.2384 280.311 12.7886H271.308V0.292725H280.319C280.46 0.842946 280.46 1.41697 280.319 1.96718H273.382V5.61344H279.68C279.805 6.16542 279.805 6.73594 279.68 7.2879H273.382V11.2002L280.311 11.1141Z" fill="#2733E9"/>
<path d="M295.311 0.371046C296.003 0.238045 296.718 0.238045 297.411 0.371046V12.8903C296.718 13.0234 296.003 13.0234 295.311 12.8903V7.20974C294.835 7.64109 294.271 7.97652 293.652 8.19563C292.924 8.48465 292.143 8.63362 291.353 8.63381C290.778 8.66716 290.201 8.58307 289.663 8.38729C289.124 8.1915 288.637 7.88862 288.234 7.49924C287.471 6.67819 287.074 5.60919 287.13 4.51808V0.347572C287.817 0.214546 288.526 0.214546 289.214 0.347572V4.25986C289.214 6.06995 290.151 6.9724 292.025 6.96717C292.705 6.97783 293.377 6.83284 293.984 6.54465C294.503 6.31797 294.973 6.00223 295.37 5.61352L295.311 0.371046Z" fill="#2733E9"/>
<path d="M309.798 11.1141C309.938 11.6644 309.938 12.2384 309.798 12.7886H300.787V0.292725H309.798C309.938 0.842946 309.938 1.41697 309.798 1.96718H302.836V5.61344H309.134C309.259 6.16542 309.259 6.73594 309.134 7.2879H302.836V11.2002L309.798 11.1141Z" fill="#2733E9"/>
<path d="M328.342 12.8279C327.676 12.961 326.99 12.961 326.325 12.8279L324.185 3.81398L320.758 12.8279C320.194 12.9376 319.613 12.9376 319.049 12.8279L315.622 3.81398L313.482 12.8279C312.816 12.961 312.13 12.961 311.465 12.8279L314.568 0.308568C315.151 0.191264 315.753 0.191264 316.336 0.308568L319.929 9.69807L323.513 0.308568C324.098 0.191089 324.703 0.191089 325.288 0.308568L328.342 12.8279Z" fill="#2733E9"/>
<path d="M202.104 17.1313C203.028 17.106 203.947 17.262 204.804 17.5893C205.661 17.9165 206.438 18.408 207.083 19.0327C207.728 19.6385 208.239 20.3608 208.582 21.1567C208.925 21.9526 209.096 22.8057 209.082 23.6649C209.1 24.5212 208.937 25.3723 208.6 26.1678C208.263 26.9635 207.761 27.6875 207.124 28.297C205.775 29.5179 203.978 30.1995 202.109 30.1995C200.238 30.1995 198.442 29.5179 197.093 28.297C196.455 27.6839 195.955 26.9569 195.62 26.1588C195.286 25.3607 195.123 24.5074 195.143 23.6492C195.116 22.7832 195.276 21.921 195.61 21.1143C195.945 20.3077 196.45 19.573 197.093 18.9545C197.743 18.326 198.526 17.8324 199.39 17.5051C200.255 17.1778 201.182 17.0238 202.113 17.0531L202.104 17.1313ZM198.635 20.1672C197.706 21.1228 197.209 22.3837 197.251 23.6804C197.206 24.98 197.703 26.244 198.635 27.2016C199.086 27.6395 199.624 27.9878 200.219 28.2257C200.813 28.4635 201.453 28.5861 202.1 28.5861C202.746 28.5861 203.386 28.4635 203.981 28.2257C204.576 27.9878 205.114 27.6395 205.564 27.2016C206.5 26.2458 206.997 24.9805 206.949 23.6804C206.996 22.3831 206.499 21.1206 205.564 20.1672C205.114 19.7293 204.576 19.381 203.981 19.1431C203.386 18.9052 202.746 18.7827 202.1 18.7827C201.453 18.7827 200.813 18.9052 200.219 19.1431C199.624 19.381 199.086 19.7293 198.635 20.1672Z" fill="#2733E9"/>
<path d="M216.83 22.0691C218.129 21.9978 219.405 22.3983 220.398 23.188C220.811 23.538 221.14 23.9657 221.366 24.4436C221.592 24.9215 221.709 25.4388 221.709 25.9618C221.709 26.4849 221.592 27.0022 221.366 27.48C221.14 27.9578 220.811 28.3857 220.398 28.7357C219.405 29.5254 218.129 29.9259 216.83 29.8545H211.919V17.3352H220.44C220.565 17.8871 220.565 18.4577 220.44 19.0097H214.001V22.0456L216.83 22.0691ZM216.83 28.1801C217.573 28.2219 218.302 27.9952 218.872 27.5464C219.103 27.3394 219.286 27.0907 219.411 26.8149C219.536 26.5392 219.601 26.2423 219.601 25.9423C219.601 25.6423 219.536 25.3453 219.411 25.0696C219.286 24.7939 219.103 24.545 218.872 24.3382C218.302 23.8894 217.573 23.6626 216.83 23.7045H214.06V28.2114L216.83 28.1801Z" fill="#2733E9"/>
<path d="M229.31 17.3818C230.623 17.3111 231.913 17.7234 232.91 18.5321C233.326 18.9129 233.656 19.3683 233.882 19.8717C234.108 20.375 234.224 20.9159 234.224 21.4624C234.224 22.0089 234.108 22.5499 233.882 23.0532C233.656 23.5566 233.326 24.012 232.91 24.3927C231.911 25.2033 230.618 25.6182 229.301 25.5508H226.506V29.8699C225.822 30.0109 225.115 30.0109 224.431 29.8699V17.3506L229.31 17.3818ZM229.31 23.9154C230.062 23.9539 230.801 23.7123 231.368 23.2425C231.842 22.7629 232.107 22.1307 232.107 21.4742C232.107 20.8176 231.842 20.1856 231.368 19.7058C230.803 19.2331 230.063 18.9911 229.31 19.0329H226.506V23.9154H229.31Z" fill="#2733E9"/>
<path d="M247.587 29.8694C246.881 30.0103 246.152 30.0103 245.447 29.8694L244.103 26.7396H238.295L236.975 29.8694C236.27 30.0103 235.541 30.0103 234.835 29.8694L240.336 17.3501C240.912 17.2326 241.509 17.2326 242.087 17.3501L247.587 29.8694ZM243.438 25.0885L241.215 19.893L238.95 25.0808L243.438 25.0885Z" fill="#2733E9"/>
<path d="M256.672 23.3912C257.382 23.5877 258.002 24.0026 258.434 24.5697C258.865 25.1367 259.083 25.8235 259.053 26.521C259.072 27.0325 258.96 27.5405 258.725 28.0022C258.492 28.4639 258.142 28.8657 257.709 29.1735C256.685 29.8655 255.442 30.2101 254.183 30.1515C252.671 30.2039 251.178 29.8219 249.901 29.0561C249.817 28.7552 249.784 28.4436 249.802 28.1328C249.773 27.8279 249.815 27.5204 249.927 27.233C251.146 28.0704 252.616 28.5198 254.125 28.5163C254.859 28.5418 255.581 28.3412 256.182 27.945C256.452 27.7601 256.667 27.5156 256.812 27.2332C256.956 26.9506 257.025 26.6388 257.013 26.3253C257.021 26.056 256.972 25.7878 256.866 25.5375C256.76 25.287 256.601 25.0599 256.398 24.8699C256.149 24.663 255.859 24.5051 255.544 24.4057C255.229 24.3062 254.896 24.2672 254.564 24.2909H252.366C252.214 23.7791 252.214 23.2379 252.366 22.7261H254.524C254.81 22.7376 255.097 22.6944 255.368 22.5989C255.637 22.5035 255.883 22.3578 256.091 22.1706C256.287 21.9833 256.44 21.7606 256.542 21.5158C256.643 21.2708 256.69 21.0091 256.68 20.7464C256.69 20.4708 256.635 20.1966 256.519 19.9435C256.403 19.6905 256.228 19.465 256.008 19.2832C255.496 18.879 254.841 18.6746 254.174 18.712C252.724 18.7319 251.316 19.1747 250.142 19.9796C250.028 19.7037 249.984 19.4058 250.018 19.1111C250 18.8003 250.034 18.4888 250.117 18.1878C251.351 17.4348 252.797 17.0528 254.266 17.0924C255.433 17.0264 256.587 17.3628 257.51 18.0391C257.892 18.3289 258.2 18.6974 258.409 19.1166C258.617 19.5357 258.721 19.9941 258.713 20.4569C258.726 21.0819 258.54 21.6961 258.179 22.2205C257.818 22.7448 257.299 23.1553 256.689 23.399L256.672 23.3912Z" fill="#2733E9"/>
<path d="M268.04 17.1312C268.971 17.1009 269.898 17.2544 270.762 17.5818C271.627 17.9092 272.41 18.4034 273.059 19.0325C273.698 19.6415 274.201 20.3653 274.537 21.1611C274.873 21.9568 275.036 22.8082 275.017 23.6647C275.036 24.5209 274.872 25.3722 274.535 26.1677C274.2 26.9634 273.698 27.6873 273.059 28.2968C271.711 29.5176 269.913 30.1994 268.044 30.1994C266.175 30.1994 264.377 29.5176 263.028 28.2968C262.39 27.6844 261.888 26.9577 261.551 26.1595C261.215 25.3612 261.051 24.5077 261.07 23.649C261.045 22.7825 261.206 21.9201 261.542 21.1135C261.879 20.3068 262.384 19.5725 263.028 18.9542C263.673 18.3297 264.449 17.8382 265.306 17.5108C266.163 17.1836 267.082 17.0277 268.007 17.0529L268.04 17.1312ZM264.579 20.1671C263.645 21.1204 263.148 22.3828 263.195 23.6803C263.146 24.9803 263.644 26.2457 264.579 27.2013C265.03 27.6394 265.568 27.9877 266.163 28.2255C266.757 28.4634 267.397 28.586 268.044 28.586C268.69 28.586 269.33 28.4634 269.925 28.2255C270.52 27.9877 271.058 27.6394 271.508 27.2013C272.443 26.2457 272.941 24.9803 272.893 23.6803C272.94 22.3828 272.442 21.1204 271.508 20.1671C271.058 19.729 270.52 19.3807 269.925 19.1429C269.33 18.905 268.69 18.7824 268.044 18.7824C267.397 18.7824 266.757 18.905 266.163 19.1429C265.568 19.3807 265.03 19.729 264.579 20.1671Z" fill="#2733E9"/>
<path d="M283.247 17.3974C284.325 17.3523 285.384 17.6653 286.243 18.2816C286.62 18.558 286.922 18.915 287.124 19.3232C287.325 19.7313 287.422 20.1789 287.404 20.629C287.425 21.2273 287.249 21.817 286.902 22.318C286.554 22.8192 286.051 23.2074 285.462 23.4301C286.151 23.6438 286.755 24.0472 287.196 24.5882C287.611 25.1236 287.826 25.7724 287.811 26.4348C287.829 26.9174 287.728 27.3976 287.516 27.8373C287.305 28.2771 286.988 28.6649 286.591 28.97C285.636 29.6409 284.461 29.9732 283.273 29.9089H277.863V17.3896L283.247 17.3974ZM279.928 28.2736H283.131C283.807 28.3107 284.474 28.113 285.007 27.718C285.216 27.5285 285.383 27.3016 285.499 27.0503C285.614 26.7993 285.676 26.5289 285.68 26.2552C285.684 25.9814 285.629 25.7097 285.521 25.4558C285.412 25.2018 285.252 24.9708 285.048 24.776C284.52 24.3877 283.857 24.1982 283.189 24.2439H279.954L279.928 28.2736ZM279.928 22.8355H283.122C283.705 22.8654 284.276 22.6802 284.716 22.3191C284.913 22.1411 285.068 21.9255 285.169 21.6866C285.271 21.4478 285.317 21.1912 285.305 20.9341C285.323 20.6729 285.275 20.4112 285.165 20.1706C285.055 19.93 284.887 19.7171 284.674 19.5492C284.201 19.2041 283.613 19.0268 283.015 19.0484H279.937L279.928 22.8355Z" fill="#2733E9"/>
<path d="M302.056 29.8694C301.351 30.0103 300.622 30.0103 299.917 29.8694L298.571 26.7396H292.765L291.445 29.8694C290.739 30.0103 290.011 30.0103 289.304 29.8694L294.805 17.3501C295.382 17.2326 295.979 17.2326 296.555 17.3501L302.056 29.8694ZM297.908 25.0885L295.685 19.893L293.453 25.0808L297.908 25.0885Z" fill="#2733E9"/>
<path d="M313.83 17.3816C314.516 17.2408 315.226 17.2408 315.912 17.3816V29.901C315.226 30.0419 314.516 30.0419 313.83 29.901V24.3378H306.553V29.8697C305.87 30.0107 305.162 30.0107 304.479 29.8697V17.3504C305.162 17.2094 305.87 17.2094 306.553 17.3504V22.6555H313.83V17.3816Z" fill="#2733E9"/>
<path d="M330.606 29.8699C329.92 30.0107 329.21 30.0107 328.524 29.8699V20.6681L320.857 29.8699C320.31 29.9725 319.745 29.9725 319.198 29.8699V17.3505C319.884 17.2097 320.594 17.2097 321.28 17.3505V26.5835L328.963 17.3818C329.509 17.2634 330.077 17.2634 330.622 17.3818L330.606 29.8699Z" fill="#2733E9"/>
<path d="M342.894 28.1637C343.035 28.714 343.035 29.288 342.894 29.8382H333.883V17.3188H342.894C343.035 17.8665 343.035 18.4379 342.894 18.9856H335.957V22.6397H342.255C342.38 23.1916 342.38 23.7621 342.255 24.3141H335.957V28.2264L342.894 28.1637Z" fill="#2733E9"/>
<path d="M0 0.324463V29.878H31.3373V0.324463H0ZM27.4212 26.1847H3.91613V4.01767H27.4212V26.1847ZM19.4646 24.9171L9.0602 15.0973L19.4646 5.28526V10.5043L14.5942 15.0973L19.4646 19.6903V24.9171Z" fill="#FF325C"/>
</svg>
